<svg viewBox="0 0 14 16" version="1.1" xmlns="http://www.w3.org/2000/svg"
     xmlns:xlink="http://www.w3.org/1999/xlink">
    <title>location</title>
    <desc>Created using Figma</desc>
    <g id="Canvas" transform="translate(150 473)">
        <g id="location">
            <g id="Combined-Shape">
                <use xlink:href="#path0_stroke" transform="translate(-149 -472.5)" fill="#262626"/>
            </g>
            <g id="Oval-3">
                <use xlink:href="#path1_stroke" transform="translate(-145 -468.5)" fill="#262626"/>
            </g>
        </g>
    </g>
    <defs>
        <path id="path0_stroke"
              d="M 6 14.7859L 5.64303 15.136L 6 15.5L 6.35697 15.136L 6 14.7859ZM 10.2392 10.4636L 10.5962 10.8137L 10.2392 10.4636ZM 10.2392 1.79123L 10.5962 1.44113L 10.2392 1.79123ZM 1.76077 1.79123L 1.40381 1.44113L 1.76077 1.79123ZM 1.76077 10.4636L 2.11774 10.1135L 1.76077 10.4636ZM 6.35697 15.136L 10.5962 10.8137L 9.88226 10.1135L 5.64303 14.4358L 6.35697 15.136ZM 10.5962 10.8137C 13.1346 8.22554 13.1346 4.02929 10.5962 1.44113L 9.88226 2.14134C 12.0392 4.34061 12.0392 7.91423 9.88226 10.1135L 10.5962 10.8137ZM 10.5962 1.44113C 8.05779 -1.14704 3.94221 -1.14704 1.40381 1.44113L 2.11774 2.14134C 4.26412 -0.0471119 7.73588 -0.0471119 9.88226 2.14134L 10.5962 1.44113ZM 1.40381 1.44113C -1.1346 4.02929 -1.1346 8.22554 1.40381 10.8137L 2.11774 10.1135C -0.0392475 7.91423 -0.0392475 4.34061 2.11774 2.14134L 1.40381 1.44113ZM 1.40381 10.8137L 5.64303 15.136L 6.35697 14.4358L 2.11774 10.1135L 1.40381 10.8137Z"/>
        <path id="path1_stroke"
              d="M 2 4.5C 3.38071 4.5 4.5 3.38071 4.5 2L 3.5 2C 3.5 2.82843 2.82843 3.5 2 3.5L 2 4.5ZM 4.5 2C 4.5 0.619288 3.38071 -0.5 2 -0.5L 2 0.5C 2.82843 0.5 3.5 1.17157 3.5 2L 4.5 2ZM 2 -0.5C 0.619288 -0.5 -0.5 0.619288 -0.5 2L 0.5 2C 0.5 1.17157 1.17157 0.5 2 0.5L 2 -0.5ZM -0.5 2C -0.5 3.38071 0.619288 4.5 2 4.5L 2 3.5C 1.17157 3.5 0.5 2.82843 0.5 2L -0.5 2Z"/>
    </defs>
</svg>
