<svg viewBox="0 0 24 24" version="1.1" xmlns="http://www.w3.org/2000/svg"
     xmlns:xlink="http://www.w3.org/1999/xlink">
    <title>instagram</title>
    <desc>Created using Figma</desc>
    <g id="Canvas" transform="translate(433 -1224)">
        <g id="ic/24/social/instagram">
            <g id="Combined Shape">
                <use xlink:href="#path0_fill" transform="translate(-424.84 1229.6)" fill="#FFFFFF"/>
            </g>
            <mask id="mask0_outline" mask-type="alpha">
                <g id="Combined Shape">
                    <use xlink:href="#path1_fill" transform="translate(-425.638 1229.6)"
                         fill="#FFFFFF"/>
                </g>
            </mask>
        </g>
    </g>
    <defs>
        <path id="path0_fill" fill-rule="evenodd"
              d="M 8.27493 0.234131C 8.42334 0.085083 8.62982 0 8.84 0C 9.0509 0 9.25748 0.085083 9.40582 0.234131C 9.55493 0.382568 9.64001 0.589111 9.64001 0.800049C 9.64001 1.01013 9.55493 1.21667 9.40582 1.36584C 9.25674 1.51416 9.0509 1.59998 8.84 1.59998C 8.62982 1.59998 8.42328 1.51416 8.27493 1.36584C 8.12582 1.21667 8.04001 1.01025 8.04001 0.800049C 8.04001 0.589111 8.12576 0.382568 8.27493 0.234131ZM 0 6.40002C 0 8.51733 1.72272 10.2397 3.84 10.2397C 5.95728 10.2397 7.67999 8.51733 7.67999 6.40002C 7.67999 4.28259 5.95743 2.56006 3.84 2.56006C 1.72256 2.56006 0 4.28259 0 6.40002Z"/>
        <path id="path1_fill" fill-rule="evenodd"
              d="M 9.07312 0.234131C 9.22153 0.085083 9.42801 0 9.63818 0C 9.84909 0 10.0557 0.085083 10.204 0.234131C 10.3531 0.382568 10.4382 0.589111 10.4382 0.800049C 10.4382 1.01013 10.3531 1.21667 10.204 1.36584C 10.0549 1.51416 9.84909 1.59998 9.63818 1.59998C 9.42801 1.59998 9.22147 1.51416 9.07312 1.36584C 8.92401 1.21667 8.8382 1.01025 8.8382 0.800049C 8.8382 0.589111 8.92395 0.382568 9.07312 0.234131ZM 4.63815 1.76208C 2.08063 1.76208 0 3.84277 0 6.40027C 0 8.95764 2.08063 11.0382 4.63815 11.0382C 7.19565 11.0382 9.27628 8.95764 9.27628 6.40027C 9.27628 3.84277 7.19565 1.76208 4.63815 1.76208ZM 4.63821 10.2397C 2.52094 10.2397 0.798218 8.51733 0.798218 6.40002C 0.798218 4.28259 2.52078 2.56006 4.63821 2.56006C 6.75565 2.56006 8.47821 4.28259 8.47821 6.40002C 8.47821 8.51733 6.75549 10.2397 4.63821 10.2397Z"/>
    </defs>
</svg>
